<svg width="162" height="38" viewBox="0 0 162 38" fill="none" xmlns="http://www.w3.org/2000/svg">
<path d="M0 18.9909C0 8.46769 7.94016 0 19.1546 0C25.9397 0 31.888 3.47439 34.9349 8.84059L32.461 10.2595C30.0416 5.73911 24.9392 2.6831 19.1546 2.6831C9.47726 2.6831 2.79224 9.94112 2.79224 18.9909C2.79224 28.0407 9.47726 35.2987 19.1546 35.2987C24.9938 35.2987 30.1508 32.1972 32.5701 27.5677L35.044 28.9866C32.0426 34.4074 26.0488 37.9818 19.1546 37.9818C7.94926 37.9818 0 29.5141 0 18.9909Z" fill="#58595B"/>
<path d="M48.2141 18.9909C48.2141 8.46769 56.5818 0 67.205 0C77.8374 0 86.1959 8.46769 86.1959 18.9909C86.1959 29.5141 77.8283 37.9818 67.205 37.9818C56.5727 37.9818 48.2141 29.5141 48.2141 18.9909ZM83.4037 18.9909C83.4037 9.94112 76.3003 2.6831 67.1959 2.6831C58.0916 2.6831 50.9882 9.94112 50.9882 18.9909C50.9882 28.0407 58.0916 35.2987 67.1959 35.2987C76.3003 35.3078 83.4037 28.0407 83.4037 18.9909Z" fill="#58595B"/>
<path d="M111.972 22.256V37.4087H109.179V22.256L95.7639 0.582031H98.92L110.598 19.5729L122.222 0.582031H125.378L111.972 22.256Z" fill="#58595B"/>
<path d="M136.22 29.3041L138.639 27.8853C139.903 32.3056 143.641 35.307 149.69 35.307C155.847 35.307 158.949 32.1509 158.949 27.9398C158.949 23.5195 155.056 21.8369 149.426 20.0452C143.269 18.0442 137.748 16.307 137.748 9.89485C137.748 3.8465 142.641 0.00830078 148.899 0.00830078C154.947 0.00830078 158.949 3.48269 160.731 7.73927L158.367 9.05808C157.002 5.74741 154.156 2.6914 148.899 2.6914C143.796 2.6914 140.585 5.69284 140.585 9.7948C140.585 14.2151 144.324 15.5794 149.581 17.3166C156.102 19.4722 161.787 21.5277 161.787 27.8944C161.787 33.9973 157.002 37.9992 149.69 37.9992C142.796 37.981 137.902 34.5157 136.22 29.3041Z" fill="#58595B"/>
</svg>
